<svg width="53" height="45" viewBox="0 0 53 45" fill="none" xmlns="http://www.w3.org/2000/svg">
<g clip-path="url(#clip0_149_183)">
<path d="M12.673 22C13.0223 21.3859 13.5281 20.8752 14.1388 20.5199C14.7496 20.1647 15.4435 19.9775 16.15 19.9775C16.8566 19.9775 17.5505 20.1647 18.1613 20.5199C18.772 20.8752 19.2777 21.3859 19.627 22L28.9 38.309C29.2459 38.9173 29.4261 39.6057 29.4227 40.3054C29.4193 41.0051 29.2325 41.6916 28.8808 42.2965C28.5291 42.9014 28.0249 43.4035 27.4185 43.7526C26.8121 44.1017 26.1247 44.2856 25.425 44.286H6.87604C6.17625 44.2858 5.48876 44.102 4.88223 43.753C4.2757 43.4039 3.77135 42.9019 3.41954 42.297C3.06774 41.692 2.88079 41.0054 2.87737 40.3056C2.87395 39.6058 3.05417 38.9174 3.40004 38.309L12.673 22Z" fill="white"/>
<path d="M38.1954 12.2418C38.8962 12.2432 39.5842 12.4287 40.1908 12.7797C40.7973 13.1307 41.3009 13.6349 41.6513 14.2417C42.0017 14.8486 42.1865 15.5369 42.1872 16.2377C42.1879 16.9384 42.0045 17.6271 41.6554 18.2347L34.4968 30.6896C34.1466 31.299 33.6421 31.8053 33.0339 32.1577C32.4258 32.51 31.7356 32.6959 31.0327 32.6966C30.3299 32.6973 29.6393 32.5128 29.0304 32.1617C28.4216 31.8106 27.916 31.3053 27.5646 30.6966L20.3581 18.2146C20.0067 17.606 19.8219 16.9154 19.8222 16.2126C19.8226 15.5098 20.0081 14.8195 20.3602 14.2111C20.7122 13.6028 21.2183 13.098 21.8275 12.7475C22.4367 12.397 23.1275 12.2133 23.8303 12.2147L38.1954 12.2418Z" fill="#E74C3C"/>
</g>
<defs>
<clipPath id="clip0_149_183">
<rect width="52.168" height="44.286" fill="white"/>
</clipPath>
</defs>
</svg>
