<svg width="75" height="78" viewBox="0 0 75 78" fill="none" xmlns="http://www.w3.org/2000/svg">
<rect x="0.0273438" y="0.867188" width="74.2277" height="76.6513" rx="37.1139" fill="#FEEEE8"/>
<g clip-path="url(#clip0_6109_2935)">
<path d="M50.5271 53.5077V22.3886C50.5271 21.3574 49.7389 20.5215 48.7666 20.5215H26.4666C25.4943 20.5215 24.7061 21.3574 24.7061 22.3886V53.5077C24.7061 54.5389 25.4943 55.3749 26.4666 55.3749H27.1591C26.8938 56.1499 27.1393 57.0178 27.7631 57.5099C28.3868 58.0021 29.2411 58.0021 29.8648 57.5099C30.4886 57.0178 30.7341 56.1499 30.4689 55.3749H44.7644C44.4991 56.1499 44.7446 57.0178 45.3684 57.5099C45.9921 58.0021 46.8464 58.0021 47.4701 57.5099C48.0939 57.0178 48.3394 56.1499 48.0741 55.3749H48.7666C49.7389 55.3749 50.5271 54.5389 50.5271 53.5077ZM48.7666 54.1301H38.2034V38.5706H42.8982V42.2364C42.8971 42.7184 43.1584 43.1578 43.5692 43.3643C43.9799 43.5708 44.4661 43.5072 44.8172 43.2011L49.3535 39.2614V53.5077C49.3535 53.8515 49.0907 54.1301 48.7666 54.1301ZM49.3535 37.6557L44.0719 42.2364L44.0719 27.3677C44.0713 27.1794 44.1511 27.0009 44.289 26.8822L49.3535 22.5256V37.6557ZM44.0719 25.4321V24.2558H45.4275L44.0719 25.4321ZM42.8982 25.5005H40.5508V24.2558H42.8982V25.5005ZM40.5508 26.7453H42.8982V31.102H40.5508V26.7453ZM42.8982 37.3258H40.5508V36.081H42.8982V37.3258ZM46.7831 23.0795C46.519 23.011 46.6599 23.011 44.0719 23.011C43.8652 23.0133 43.6628 23.0734 43.485 23.1853C43.1095 22.955 43.086 23.011 40.5508 23.011C39.9026 23.011 39.3771 23.5683 39.3771 24.2558V31.102H38.2034V21.7662H48.303L46.7831 23.0795ZM38.2034 32.3467H42.8982V34.8363H40.5508C39.9026 34.8363 39.3771 35.3936 39.3771 36.081V37.3258H38.2034V32.3467ZM26.4666 21.7662H37.0298V37.3258H25.8797V22.3886C25.8797 22.0449 26.1425 21.7662 26.4666 21.7662ZM25.8797 53.5077V38.5706H37.0298V54.1301H26.4666C26.1425 54.1301 25.8797 53.8515 25.8797 53.5077ZM29.4008 55.9973C29.4008 56.341 29.1381 56.6197 28.814 56.6197C28.4899 56.6197 28.2271 56.341 28.2271 55.9973C28.2271 55.6535 28.4899 55.3749 28.814 55.3749C29.1381 55.3749 29.4008 55.6535 29.4008 55.9973ZM47.0061 55.9973C47.0061 56.341 46.7434 56.6197 46.4192 56.6197C46.0951 56.6197 45.8324 56.341 45.8324 55.9973C45.8324 55.6535 46.0951 55.3749 46.4192 55.3749C46.7434 55.3749 47.0061 55.6535 47.0061 55.9973Z" fill="#FF642B"/>
<path d="M28.2274 29.2348H28.8142C29.1383 29.2348 29.4011 28.9562 29.4011 28.6124C29.4011 28.2687 29.1383 27.99 28.8142 27.99H28.2274V24.2558H28.8142C29.1383 24.2558 29.4011 23.9771 29.4011 23.6334C29.4011 23.2896 29.1383 23.011 28.8142 23.011H28.2274C27.5792 23.011 27.0537 23.5683 27.0537 24.2558V27.99C27.0537 28.6775 27.5792 29.2348 28.2274 29.2348Z" fill="#FF642B"/>
<path d="M27.6406 31.7243C27.9647 31.7243 28.2274 31.4456 28.2274 31.1019C28.2274 30.7581 27.9647 30.4795 27.6406 30.4795C27.3164 30.4795 27.0537 30.7581 27.0537 31.1019C27.0537 31.4456 27.3164 31.7243 27.6406 31.7243Z" fill="#FF642B"/>
<path d="M41.1375 41.0602C41.4616 41.0602 41.7243 40.7815 41.7243 40.4378C41.7243 40.0941 41.4616 39.8154 41.1375 39.8154H40.5506C39.9024 39.8154 39.377 40.3727 39.377 41.0602V44.7945C39.377 45.482 39.9024 46.0393 40.5506 46.0393H41.1375C41.4616 46.0393 41.7243 45.7606 41.7243 45.4169C41.7243 45.0731 41.4616 44.7945 41.1375 44.7945H40.5506V41.0602H41.1375Z" fill="#FF642B"/>
<path d="M39.9638 48.5287C40.2879 48.5287 40.5506 48.2501 40.5506 47.9063C40.5506 47.5626 40.2879 47.2839 39.9638 47.2839C39.6397 47.2839 39.377 47.5626 39.377 47.9063C39.377 48.2501 39.6397 48.5287 39.9638 48.5287Z" fill="#FF642B"/>
<path d="M29.4011 45.4169C29.4011 45.0731 29.1383 44.7945 28.8142 44.7945H28.2274V41.0602H28.8142C29.1383 41.0602 29.4011 40.7815 29.4011 40.4378C29.4011 40.0941 29.1383 39.8154 28.8142 39.8154H28.2274C27.5792 39.8154 27.0537 40.3727 27.0537 41.0602V44.7945C27.0537 45.482 27.5792 46.0393 28.2274 46.0393H28.8142C29.1383 46.0393 29.4011 45.7606 29.4011 45.4169Z" fill="#FF642B"/>
<path d="M27.6406 48.5287C27.9647 48.5287 28.2274 48.2501 28.2274 47.9063C28.2274 47.5626 27.9647 47.2839 27.6406 47.2839C27.3164 47.2839 27.0537 47.5626 27.0537 47.9063C27.0537 48.2501 27.3164 48.5287 27.6406 48.5287Z" fill="#FF642B"/>
<path d="M45.832 27.99C45.5079 27.99 45.2451 28.2686 45.2451 28.6124V33.5914C45.2451 33.9352 45.5079 34.2138 45.832 34.2138C46.1561 34.2138 46.4188 33.9352 46.4188 33.5914V28.6124C46.4188 28.2686 46.1561 27.99 45.832 27.99Z" fill="#FF642B"/>
</g>
<defs>
<clipPath id="clip0_6109_2935">
<rect width="35.2106" height="37.3429" fill="white" transform="translate(20.0117 20.5215)"/>
</clipPath>
</defs>
</svg>
