<svg width="48" height="48" viewBox="0 0 48 48" fill="none" xmlns="http://www.w3.org/2000/svg">
<rect width="48" height="48" rx="24" fill="#FF642B"/>
<path d="M29.6211 29.6543C30.0076 29.2706 30.6272 29.2705 31.0137 29.6543L33.5684 31.7168H33.6123C34.129 32.2392 34.1291 33.0861 33.6123 33.6084C33.0956 34.1306 32.258 34.1304 31.7412 33.6084L29.6211 31.1787C29.4207 30.9768 29.3076 30.702 29.3076 30.416C29.3077 30.1302 29.4208 29.8561 29.6211 29.6543ZM22.5781 14C24.8527 14.0001 27.0341 14.9135 28.6426 16.5391C30.2512 18.165 31.1553 20.3705 31.1553 22.6699C31.1553 27.458 27.3152 31.3396 22.5781 31.3398C17.8408 31.3398 14 27.4582 14 22.6699C14 17.8817 17.8408 14 22.5781 14Z" fill="white"/>
</svg>
