<svg width="48" height="48" viewBox="0 0 48 48" fill="none" xmlns="http://www.w3.org/2000/svg">
<rect width="48" height="48" rx="24" fill="#FF642B"/>
<path d="M32.7518 27.9516C30.974 28.7557 28.9934 28.9991 27.0739 28.6491C25.1543 28.2992 23.3869 27.3727 22.0072 25.993C20.6275 24.6133 19.701 22.8459 19.3511 20.9264C19.0012 19.0068 19.2445 17.0262 20.0486 15.2484C18.6333 15.888 17.3943 16.8614 16.4378 18.0852C15.4814 19.3089 14.8361 20.7464 14.5573 22.2743C14.2785 23.8022 14.3746 25.3749 14.8372 26.8576C15.2998 28.3402 16.1153 29.6885 17.2135 30.7867C18.3117 31.885 19.66 32.7004 21.1426 33.163C22.6253 33.6257 24.198 33.7217 25.7259 33.4429C27.2539 33.1641 28.6913 32.5188 29.9151 31.5624C31.1388 30.606 32.1122 29.3669 32.7518 27.9516Z" fill="white"/>
</svg>
